inDegrees=no
num_controls=7
num_derivatives=13
num_iterations=164
num_multipliers=7
num_parameters=0
num_slacks=7
num_states=26
objective=4.806031
objective_accelerations=0.492359
objective_balance=0.006889
objective_effort=0.139003
objective_height=4.095944
objective_ligament=0.071836
solver_duration=1863.807588
status=Solve_Succeeded
success=true
DataType=double
version=3
OpenSimVersion=4.4-2022-07-23-0e9fedc
endheader
time	/jointset/ground_pelvis/pelvis_tilt/value	/jointset/ground_pelvis/pelvis_tx/value	/jointset/ground_pelvis/pelvis_ty/value	/jointset/hip_l/hip_flexion_l/value	/jointset/hip_l/hip_adduction_l/value	/jointset/hip_l/hip_rotation_l/value	/jointset/back/lumbar_extension/value	/jointset/patellofemoral_l/patellar_flexion_l/value	/jointset/knee_l/knee_flexion_l/value	/jointset/knee_l/knee_adduction_l/value	/jointset/knee_l/knee_rotation_l/value	/jointset/ankle_l/ankle_angle_l/value	/jointset/subtalar_l/subtalar_angle_l/value	/jointset/ground_pelvis/pelvis_tilt/speed	/jointset/ground_pelvis/pelvis_tx/speed	/jointset/ground_pelvis/pelvis_ty/speed	/jointset/hip_l/hip_flexion_l/speed	/jointset/hip_l/hip_adduction_l/speed	/jointset/hip_l/hip_rotation_l/speed	/jointset/back/lumbar_extension/speed	/jointset/patellofemoral_l/patellar_flexion_l/speed	/jointset/knee_l/knee_flexion_l/speed	/jointset/knee_l/knee_adduction_l/speed	/jointset/knee_l/knee_rotation_l/speed	/jointset/ankle_l/ankle_angle_l/speed	/jointset/subtalar_l/subtalar_angle_l/speed	/forceset/tau_hip_flexion_l	/forceset/tau_hip_adduction_l	/forceset/tau_hip_rotation_l	/forceset/tau_knee_flexion_l	/forceset/tau_ankle_angle_l	/forceset/tau_subtalar_angle_l	/forceset/tau_lumbar_extension	lambda_cid13_p0	lambda_cid13_p1	lambda_cid13_p2	lambda_cid13_p3	lambda_cid13_p4	lambda_cid13_p5	lambda_cid14_p0	/jointset/ground_pelvis/pelvis_tilt/accel	/jointset/ground_pelvis/pelvis_tx/accel	/jointset/ground_pelvis/pelvis_ty/accel	/jointset/hip_l/hip_flexion_l/accel	/jointset/hip_l/hip_adduction_l/accel	/jointset/hip_l/hip_rotation_l/accel	/jointset/back/lumbar_extension/accel	/jointset/patellofemoral_l/patellar_flexion_l/accel	/jointset/knee_l/knee_flexion_l/accel	/jointset/knee_l/knee_adduction_l/accel	/jointset/knee_l/knee_rotation_l/accel	/jointset/ankle_l/ankle_angle_l/accel	/jointset/subtalar_l/subtalar_angle_l/accel	gamma_cid13_p0	gamma_cid13_p1	gamma_cid13_p2	gamma_cid13_p3	gamma_cid13_p4	gamma_cid13_p5	gamma_cid14_p0
1.5	-0.2457248623491682	0.07481956772520738	0.8220581538189793	0.8032146723960963	-0.3511429131268075	-0.09128384849056513	-0.3093095713978598	0.7131655836280493	0.7131655836280896	-0.02938285381221017	-0.1663786029721226	0.2689388430817084	0.1623174507098015	0.2612499787399983	0.2154003451634744	0.3646521680849283	-1.766525839895902	0.06405139519148714	-0.5266373250292803	0.6206341505896844	-1.922551511739689	-1.922551511739673	-0.1871164371332315	0.06532186623717025	-0.5511032191911921	-0.1382406185468033	-0.09259273804218178	0.02752231958984898	0.0006734822305211039	-0.1409555464637458	-0.03382285335951614	0.01715889722485657	0.1015477257549597	-34.13225588301745	-3.788854046834728	2.965102670336849	-1.481478474133396	-436.2862769971026	-68.00398302754081	-14.2927067902413	0.3055561950783949	0.3841607120207868	-0.5860922142630451	-0.8940081669625775	0.3032911764273333	-0.2061645128433771	1.193537265906816	-0.9664089686286954	-0.9664089686286967	-0.1280119069370236	0.3116078810426203	-0.3704760055080578	0.3712728673893715	2.67222327965174e-07	1.016171917156546e-06	-3.126564023139786e-06	3.622459915956576e-08	6.354784619865077e-07	1.815733610541849e-06	4.324417675597298e-07
1.51	-0.2430971416992418	0.07699253421689696	0.8256746736608037	0.7855060393164796	-0.3504889684874608	-0.09655770520954811	-0.3030450458798301	0.6938935960850923	0.6938935960851192	-0.03126504886786463	-0.1657100965143473	0.2634094295876853	0.1609512607155321	0.2642419417040121	0.2191628019277656	0.3585766571214835	-1.774957027469241	0.06672115971528028	-0.5280126877843648	0.6321690097294589	-1.931588435651461	-1.931588435651445	-0.1893591650013318	0.06842471322991595	-0.554699234580776	-0.1349957086742399	-0.08927823102438182	0.0260536584739182	0.001317980697356038	-0.1384149430133953	-0.03309336574716282	0.01623957143930348	0.09861613972176746	-33.85059251312964	-3.530274091569372	3.028238796374555	-1.482458225848795	-434.0892333376041	-67.8476551263288	-15.05290276634584	0.2882142484092802	0.3677869238043761	-0.6294305089155207	-0.7810731266070318	0.2466783776505173	-0.08455973271728376	1.118168744908399	-0.8337866596226359	-0.8337866596228383	-0.2778156270675155	0.3159141278435375	-0.3420664401865637	0.3014730105828888	2.401856356702734e-07	1.291952195549602e-06	-2.991790379327565e-06	8.310777394916203e-08	6.170200368884508e-07	1.939463196946014e-06	4.332619161326862e-07
1.52	-0.2404410618393826	0.07920222502926369	0.8292282083986884	0.7677204145463166	-0.3498087543454041	-0.101841583071288	-0.2966682300690208	0.6745389487915955	0.674538948791592	-0.03317075368220446	-0.1650093033827563	0.2578464755128655	0.1596175944126674	0.2669218207218436	0.2227452092989094	0.3520551472969192	-1.781924178006094	0.06930529573091525	-0.5286415535745074	0.6430922091450455	-1.939083461850073	-1.939083461850058	-0.1918183888822823	0.07177920100077069	-0.5578113353504761	-0.1317358802659588	-0.08596372400673896	0.02458499735777921	0.001962479164165931	-0.1358743395630927	-0.03236387813486308	0.01532024565345944	0.09568455368848365	-33.56743544954011	-3.273191051181949	3.093026920165192	-1.513753981891671	-431.8839980866445	-67.76042406545712	-15.80793907248622	0.243139405841936	0.3481508333913909	-0.6752919864869272	-0.6012007596656813	0.286165474795664	-0.05686511985490289	1.071205321069341	-0.6580294259965566	-0.6580294259965558	-0.1713111095071038	0.361936036664514	-0.2736930815312043	0.3742565745329678	1.1884364650252e-07	1.964912158050992e-06	-2.146804190744741e-06	2.072264123390075e-07	4.65408059032315e-07	1.904108379038271e-06	3.779675597419377e-07
1.53	-0.2377599057832906	0.08144663604795428	0.832714304568128	0.7498732452122225	-0.3491021749587679	-0.1071335272318672	-0.2901850173228728	0.6551176284383675	0.6551176284384412	-0.03509708300469278	-0.1642771518563547	0.2522551094993589	0.1583180472099875	0.2692720725967352	0.2260880384833876	0.3450954406070437	-1.787251536777533	0.0719909742907302	-0.529606021413052	0.6534362068522697	-1.944904659711516	-1.944904659711487	-0.1934993265903411	0.07469417685937436	-0.5603929788114103	-0.1281832901108921	-0.08310342953418888	0.02413846770823704	0.002592376247804778	-0.1324653745656152	-0.03281004805624465	0.01372216678658936	0.09302445050803503	-33.73486058845597	-2.639522691328039	3.094452612202602	-1.079395656842376	-429.8070090369541	-66.83724691374975	-16.55192513261728	0.2253496437328706	0.3201103252861766	-0.716603824837121	-0.4598074404857209	0.2563957497187808	-0.09484498337136786	0.9988770106440948	-0.5028129114240462	-0.5028129114221968	-0.1736891239299633	0.2628370719262166	-0.239961995139952	0.3436947019163401	-1.026977205926384e-07	3.059875534917483e-06	-5.47217173343158e-07	4.134077308041168e-07	1.723204313707224e-07	1.699726381549128e-06	2.630515418272533e-07
